<?xml version="1.0" encoding="utf-8"?>
<!-- Generator: Adobe Illustrator 22.1.0, SVG Export Plug-In . SVG Version: 6.00 Build 0)  -->
<svg version="1.1" id="Layer_1" xmlns="http://www.w3.org/2000/svg" xmlns:xlink="http://www.w3.org/1999/xlink" x="0px" y="0px"
	 viewBox="0 0 353.4 180.1" style="enable-background:new 0 0 353.4 180.1;" xml:space="preserve">
<style type="text/css">
	.st0{fill:#FFFFFF;}
</style>
<g>
	<g>
		<path class="st0" d="M143.5,54.7c-0.2-0.6-0.4-1.1-0.5-1.5c-0.1,0.4-0.3,0.9-0.5,1.5s-0.4,1.2-0.7,1.9l-1.5,4h5.3l-1.5-4
			C143.9,55.9,143.7,55.3,143.5,54.7z"/>
		<path class="st0" d="M168.3,88.2h-6v5.7h6c1.1,0,1.9-0.3,2.4-0.8s0.8-1.2,0.8-2.1C171.6,89.1,170.5,88.2,168.3,88.2z"/>
		<path class="st0" d="M247.8,51.9h-2.5v13.5h2.3c1.2,0,2.3-0.2,3.2-0.5s1.6-0.8,2.2-1.4c0.6-0.6,1-1.3,1.3-2.1s0.4-1.7,0.4-2.8
			c0-2.2-0.5-3.9-1.6-5C252,52.5,250.3,51.9,247.8,51.9z"/>
		<path class="st0" d="M212.8,54.7c0-1-0.3-1.7-0.9-2.2c-0.6-0.4-1.4-0.6-2.4-0.6h-6.1v5.7h6.1C211.7,57.6,212.8,56.6,212.8,54.7z"
			/>
		<path class="st0" d="M320.4,51.9h-2.5v13.5h2.3c1.2,0,2.3-0.2,3.2-0.5s1.6-0.8,2.2-1.4s1-1.3,1.3-2.1s0.4-1.7,0.4-2.8
			c0-2.2-0.5-3.9-1.6-5C324.6,52.5,322.8,51.9,320.4,51.9z"/>
		<path class="st0" d="M332.4,0H21C9.4,0,0,9.4,0,21v88.7c0,11.6,9.4,21,21,21h311.4c11.6,0,21-9.4,21-21V21
			C353.4,9.4,344,0,332.4,0z M264,47.6h4.6v22H264V47.6z M117.9,126.7H21c-9.4,0-17-7.6-17-17V21c0-9.4,7.6-17,17-17h96.9l0,0V126.7
			z M149.1,69.7l-1.8-4.9h-8.5l-1.8,4.9h-5l8.9-22h4.5l8.8,22H149.1z M155.7,63.4c-0.5-1.4-0.7-3-0.7-4.7s0.3-3.2,0.8-4.6
			c0.5-1.4,1.2-2.6,2.1-3.6c0.9-1,2-1.8,3.2-2.3c1.3-0.6,2.7-0.8,4.2-0.8c1.1,0,2.1,0.1,2.9,0.4c2,0.6,4.2,2,5.6,3.6l-3.2,3.1
			c-1.2-1.5-3.6-2.7-5.4-2.7c-0.9,0-1.6,0.2-2.3,0.5s-1.3,0.8-1.7,1.4c-0.5,0.6-0.8,1.4-1.1,2.2c-0.2,0.8-0.4,1.8-0.4,2.8
			s0.1,1.9,0.4,2.8c0.2,0.8,0.6,1.6,1.1,2.2c0.5,0.6,1.1,1.1,1.7,1.5c0.7,0.4,1.5,0.5,2.3,0.5c1.8,0,4.7-1.3,5.6-2.8l3.3,2.9
			c-1.4,2.7-6.2,4.3-9.1,4.3c-1.5,0-2.9-0.3-4.1-0.8c-1.2-0.5-2.3-1.3-3.2-2.3C156.9,65.9,156.2,64.7,155.7,63.4z M175.6,94
			c-0.4,0.9-0.9,1.6-1.6,2.2c-0.7,0.6-1.5,1-2.5,1.4c-1,0.3-2.1,0.5-3.3,0.5h-10.3v-22h10.4c2.2,0,3.9,0.5,5.2,1.5s1.9,2.4,1.9,4.3
			c0,0.9-0.2,1.8-0.6,2.5c-0.4,0.7-1,1.3-1.8,1.8c0.9,0.4,1.7,1,2.3,1.8s0.9,1.8,0.9,3C176.2,92.1,176,93.1,175.6,94z M177.1,63.4
			c-0.5-1.4-0.7-3-0.7-4.7s0.3-3.2,0.8-4.6c0.5-1.4,1.2-2.6,2.1-3.6c0.9-1,2-1.8,3.2-2.3c1.3-0.6,2.7-0.8,4.2-0.8
			c1.1,0,2.1,0.1,2.9,0.4c2,0.6,4.2,2,5.6,3.6l-3.2,3.1c-1.2-1.5-3.6-2.7-5.4-2.7c-0.9,0-1.6,0.2-2.3,0.5s-1.3,0.8-1.7,1.4
			c-0.5,0.6-0.8,1.4-1.1,2.2c-0.2,0.8-0.4,1.8-0.4,2.8s0.1,1.9,0.4,2.8c0.2,0.8,0.6,1.6,1.1,2.2c0.5,0.6,1.1,1.1,1.7,1.5
			c0.7,0.4,1.5,0.5,2.3,0.5c1.8,0,4.7-1.3,5.6-2.8l3.3,2.9c-1.4,2.7-6.2,4.3-9.1,4.3c-1.5,0-2.9-0.3-4.1-0.8
			c-1.2-0.5-2.3-1.3-3.2-2.3C178.3,65.9,177.6,64.7,177.1,63.4z M197.5,88.4c0,3.2-0.8,5.7-2.4,7.4c-1.6,1.7-3.9,2.6-6.7,2.6
			c-1.4,0-2.6-0.2-3.7-0.7s-2.1-1.1-2.9-1.9c-0.8-0.8-1.4-1.9-1.9-3.1c-0.4-1.2-0.7-2.7-0.7-4.3V76.1h4.5v12.3
			c0,1.8,0.4,3.2,1.2,4.2s1.9,1.5,3.4,1.5s2.6-0.5,3.4-1.5c0.8-1,1.2-2.4,1.2-4.2V76.1h4.5L197.5,88.4L197.5,88.4z M198.8,47.6h10.8
			c1.1,0,2.1,0.1,3.1,0.4c1,0.3,1.8,0.7,2.6,1.3s1.3,1.3,1.7,2.2s0.6,1.9,0.6,3.1c0,1.7-0.4,3-1.1,4.1s-2.4,2-3.9,2.6l5.1,8.4h-5.3
			l-4.8-7.7l-4.1-0.2v7.9h-4.6L198.8,47.6L198.8,47.6z M217.8,94.3c-0.3,0.9-0.9,1.6-1.6,2.2c-0.7,0.6-1.7,1.1-2.8,1.4
			s-2.4,0.5-4,0.5c-1.9,0-3.6-0.4-5.2-1.1c-1.6-0.7-2.8-1.7-3.6-2.9l3.3-2.8c0.8,0.9,1.7,1.5,2.7,1.9s2,0.6,3.1,0.6
			c1.4,0,2.4-0.2,3-0.6s1-1,1-1.8c0-0.4-0.1-0.7-0.2-0.9c-0.1-0.3-0.4-0.5-0.7-0.7c-0.4-0.2-0.9-0.4-1.5-0.7
			c-0.7-0.2-1.5-0.4-2.6-0.7c-1-0.2-2-0.5-2.9-0.8s-1.6-0.7-2.2-1.2c-0.6-0.5-1.1-1.1-1.5-1.8c-0.3-0.7-0.5-1.6-0.5-2.7
			c0-1,0.2-1.9,0.6-2.7c0.4-0.8,1-1.5,1.7-2c0.7-0.6,1.6-1,2.6-1.3s2-0.4,3.1-0.4c1.8,0,3.3,0.3,4.6,0.9s2.5,1.5,3.6,2.5l-3.3,3.1
			c-0.7-0.7-1.5-1.3-2.3-1.7c-0.8-0.4-1.8-0.6-2.8-0.6c-0.6,0-1.1,0.1-1.5,0.2s-0.7,0.3-1,0.5s-0.4,0.4-0.5,0.6s-0.2,0.5-0.2,0.7
			c0,0.4,0.1,0.7,0.2,0.9c0.1,0.2,0.4,0.5,0.7,0.6c0.3,0.2,0.8,0.4,1.4,0.5s1.3,0.4,2.2,0.6s1.8,0.5,2.7,0.7
			c0.9,0.3,1.7,0.7,2.4,1.2s1.3,1.1,1.8,1.9s0.7,1.8,0.7,3C218.3,92.5,218.1,93.4,217.8,94.3z M220.7,47.6h16.1V52h-11.5v3.8h9.6V60
			h-9.6v5.3h12v4.3h-16.6V47.6z M226.5,98.1H222v-22h4.5V98.1z M249.5,98.1h-4l-8.3-12c-0.3-0.4-0.6-0.9-0.9-1.3
			c-0.3-0.5-0.5-0.9-0.7-1.1c0,0.2,0,0.5,0,0.9s0,0.9,0,1.3c0,0.5,0,0.9,0,1.4s0,0.8,0,1.2v9.7h-4.5v-22h4.3l8,11.6
			c0.3,0.4,0.6,0.9,0.9,1.3c0.3,0.5,0.5,0.9,0.7,1.1c0-0.2,0-0.5,0-0.9s0-0.8,0-1.3s0-1,0-1.4c0-0.5,0-0.8,0-1.2v-9.3h4.5V98.1
			L249.5,98.1z M247.6,69.7h-6.9v-22h7.3c1.7,0,3.2,0.2,4.6,0.6c1.4,0.4,2.6,1,3.6,1.9c1,0.9,1.8,2,2.4,3.4s0.9,3.1,0.9,5.1
			c0,1.9-0.3,3.6-1,5s-1.6,2.5-2.7,3.4c-1.1,0.9-2.4,1.5-3.8,2C250.6,69.4,249.1,69.7,247.6,69.7z M271,98.1h-16.6v-22h16.1v4.3H259
			v3.8h9.6v4.3H259v5.3h12V98.1z M289,94.3c-0.3,0.9-0.9,1.6-1.6,2.2s-1.7,1.1-2.8,1.4c-1.1,0.3-2.4,0.5-4,0.5
			c-1.9,0-3.6-0.4-5.2-1.1s-2.8-1.7-3.6-2.9l3.3-2.8c0.8,0.9,1.7,1.5,2.7,1.9s2,0.6,3.1,0.6c1.4,0,2.4-0.2,3-0.6s1-1,1-1.8
			c0-0.4-0.1-0.7-0.2-0.9c-0.1-0.3-0.4-0.5-0.7-0.7c-0.4-0.2-0.9-0.4-1.5-0.7c-0.7-0.2-1.5-0.4-2.6-0.7c-1-0.2-2-0.5-2.9-0.8
			s-1.6-0.7-2.2-1.2s-1.1-1.1-1.5-1.8c-0.3-0.7-0.5-1.6-0.5-2.7c0-1,0.2-1.9,0.6-2.7c0.4-0.8,1-1.5,1.7-2c0.7-0.6,1.6-1,2.6-1.3
			s2-0.4,3.1-0.4c1.8,0,3.3,0.3,4.6,0.9c1.3,0.6,2.5,1.5,3.6,2.5l-3.3,3.1c-0.7-0.7-1.5-1.3-2.3-1.7c-0.8-0.4-1.8-0.6-2.8-0.6
			c-0.6,0-1.1,0.1-1.5,0.2s-0.7,0.3-1,0.5s-0.4,0.4-0.5,0.6s-0.2,0.5-0.2,0.7c0,0.4,0.1,0.7,0.2,0.9c0.1,0.2,0.4,0.5,0.7,0.6
			c0.3,0.2,0.8,0.4,1.4,0.5c0.6,0.2,1.3,0.4,2.2,0.6c0.9,0.2,1.8,0.5,2.7,0.7c0.9,0.3,1.7,0.7,2.4,1.2c0.7,0.5,1.3,1.1,1.8,1.9
			s0.7,1.8,0.7,3C289.5,92.5,289.3,93.4,289,94.3z M290.3,52h-6.7v17.7H279V52h-6.7v-4.3h18V52L290.3,52z M308.4,94.3
			c-0.3,0.9-0.9,1.6-1.6,2.2s-1.7,1.1-2.8,1.4c-1.1,0.3-2.4,0.5-4,0.5c-1.9,0-3.6-0.4-5.2-1.1s-2.8-1.7-3.6-2.9l3.3-2.8
			c0.8,0.9,1.7,1.5,2.7,1.9s2,0.6,3.1,0.6c1.4,0,2.4-0.2,3-0.6s1-1,1-1.8c0-0.4-0.1-0.7-0.2-0.9c-0.1-0.3-0.4-0.5-0.7-0.7
			c-0.4-0.2-0.9-0.4-1.5-0.7c-0.7-0.2-1.5-0.4-2.6-0.7c-1-0.2-2-0.5-2.9-0.8s-1.6-0.7-2.2-1.2s-1.1-1.1-1.5-1.8
			c-0.3-0.7-0.5-1.6-0.5-2.7c0-1,0.2-1.9,0.6-2.7s1-1.5,1.7-2c0.7-0.6,1.6-1,2.6-1.3s2-0.4,3.1-0.4c1.8,0,3.3,0.3,4.6,0.9
			c1.3,0.6,2.5,1.5,3.6,2.5l-3.3,3.1c-0.7-0.7-1.5-1.3-2.3-1.7C302,80.2,301,80,300,80c-0.6,0-1.1,0.1-1.5,0.2s-0.7,0.3-1,0.5
			s-0.4,0.4-0.5,0.6s-0.2,0.5-0.2,0.7c0,0.4,0.1,0.7,0.2,0.9c0.1,0.2,0.4,0.5,0.7,0.6c0.3,0.2,0.8,0.4,1.4,0.5
			c0.6,0.2,1.3,0.4,2.2,0.6s1.8,0.5,2.7,0.7c0.9,0.3,1.7,0.7,2.4,1.2s1.3,1.1,1.8,1.9s0.7,1.8,0.7,3
			C308.9,92.5,308.7,93.4,308.4,94.3z M309.8,69.7h-16.6v-22h16.1V52h-11.5v3.8h9.6V60h-9.6v5.3h12V69.7L309.8,69.7z M331.1,63.6
			c-0.7,1.4-1.6,2.5-2.7,3.4s-2.4,1.5-3.8,2c-1.4,0.4-2.9,0.6-4.4,0.6h-6.9v-22h7.3c1.7,0,3.2,0.2,4.6,0.6c1.4,0.4,2.6,1,3.6,1.9
			s1.8,2,2.4,3.4s0.9,3.1,0.9,5.1S331.8,62.2,331.1,63.6z"/>
		<path class="st0" d="M170.3,83.7c0.4-0.4,0.6-0.9,0.6-1.5c0-0.7-0.2-1.2-0.6-1.6c-0.4-0.4-1.1-0.5-2.1-0.5h-5.7v4.2h6
			C169.3,84.3,169.9,84.1,170.3,83.7z"/>
		<path class="st0" d="M47.9,62.2l9.8,7.1c1.7,1.2,1.8,2.4,1,3.7l1.4,1.1l5-6.9c3.1-4.3,2.8-10.1-1.8-13.4l-9.9-7.2
			c-1.2-0.9-1.3-2.1-0.7-3.4l-1.4-1L46,49.5C43.4,53.1,44.2,59.6,47.9,62.2z"/>
		<path class="st0" d="M54.5,39.7l13.6,10c2.8,2,3.1,7.2,1.1,9.8l1.2,0.9l9.4-13.2c4.2-5.9,4-14.7-2.6-19.5L62.5,17.1
			c-2-1.5-3-4-1.4-6.4l-1.3-0.9l-8.3,11.4C47.8,26.6,49.2,35.8,54.5,39.7z"/>
		<path class="st0" d="M80.4,76.6c-13.6,0-27.2,0-40.8,0l-1.4,4.9h11l2,6.6c6,0,11.9,0,17.9,0l2-6.6H82L80.4,76.6z"/>
		<path class="st0" d="M94.5,115.1c-0.1-0.1-0.1-0.1-0.3-0.2c-0.1-0.1-0.2-0.1-0.4-0.2c-0.1-0.1-0.3-0.1-0.3-0.1
			c-0.1,0-0.2-0.1-0.2-0.1l-0.1-0.1c0,0,0-0.1,0-0.2s0-0.1,0-0.2l0.1-0.1c0,0,0.1-0.1,0.2-0.1s0.2,0,0.2,0c0.1,0,0.3,0,0.4,0.1
			c0.1,0,0.2,0.1,0.3,0.2l0.2-0.2c-0.1-0.1-0.2-0.2-0.4-0.2c-0.1-0.1-0.3-0.1-0.5-0.1c-0.1,0-0.2,0-0.4,0s-0.2,0.1-0.3,0.1
			c-0.1,0.1-0.1,0.1-0.2,0.2s-0.1,0.2-0.1,0.3c0,0.1,0,0.2,0,0.3c0,0.1,0.1,0.1,0.1,0.2c0.1,0.1,0.1,0.1,0.2,0.2s0.2,0.1,0.4,0.2
			c0.1,0,0.2,0.1,0.3,0.1c0.1,0,0.2,0.1,0.2,0.1c0.1,0,0.1,0.1,0.1,0.1c0,0.1,0,0.1,0,0.2s-0.1,0.3-0.2,0.3
			c-0.1,0.1-0.3,0.1-0.4,0.1s-0.3,0-0.4-0.1s-0.2-0.1-0.3-0.2l-0.2,0.2c0.1,0.1,0.2,0.2,0.4,0.3c0.2,0.1,0.3,0.1,0.5,0.1
			c0.1,0,0.3,0,0.4-0.1c0.1,0,0.2-0.1,0.3-0.2c0.1-0.1,0.1-0.1,0.2-0.2c0-0.1,0.1-0.2,0.1-0.3c0-0.1,0-0.2,0-0.3
			C94.6,115.2,94.6,115.2,94.5,115.1z"/>
		<path class="st0" d="M96.6,115.2C96.6,115.2,96.6,115.3,96.6,115.2c-0.1,0.2-0.1,0.2-0.2,0.2c0,0,0,0.1-0.1,0.1s0,0.1,0,0.1v-0.1
			c0,0,0-0.1-0.1-0.1c0-0.1,0-0.1-0.1-0.1c0-0.1,0-0.1-0.1-0.1l-0.7-1.6H95v2.7h0.3v-1.8v-0.3v0.1v0.1v0.1v0.1l0.7,1.8l0.7-1.8v-0.1
			v-0.1v-0.1v-0.1v0.3v1.8H97v-2.7h-0.3L96.6,115.2z"/>
		<path class="st0" d="M43.2,103.7c1.9-1.1,3.1-2.8,3.1-5.1c0-4.5-3.7-6.4-7.8-6.4H27.3v24.1h11.2c4.8,0,9.9-2.1,9.1-7.6
			C47.1,105.6,45.8,104.8,43.2,103.7z M32.4,96.9h5.9c3.7,0,3.8,5.1,0.2,5.1h-6.1C32.4,102,32.4,96.9,32.4,96.9z M38.9,111.8h-6.6
			v-5.5h6.6C43.8,106.3,43.5,111.8,38.9,111.8z"/>
		<path class="st0" d="M65.7,103.7c1.9-1.1,3.1-2.8,3.1-5.1c0-4.5-3.7-6.4-7.8-6.4H49.7v24.1H61c4.8,0,9.9-2.1,9.1-7.6
			C69.5,105.6,68.3,104.8,65.7,103.7z M54.9,96.9h5.9c3.7,0,3.8,5.1,0.2,5.1h-6.1C54.9,102,54.9,96.9,54.9,96.9z M61.4,111.8h-6.6
			v-5.5h6.6C66.2,106.3,66,111.8,61.4,111.8z"/>
		<path class="st0" d="M88.2,103.7c1.9-1.1,3.1-2.8,3.1-5.1c0-4.5-3.7-6.4-7.8-6.4H72.2v24.1h11.2c4.8,0,9.9-2.1,9.1-7.6
			C92,105.6,90.8,104.8,88.2,103.7z M77.3,96.9h5.9c3.7,0,3.8,5.1,0.2,5.1h-6.1V96.9z M83.9,111.8h-6.6v-5.5h6.6
			C88.7,106.3,88.4,111.8,83.9,111.8z"/>
	</g>
	<g>
		<g>
			<path class="st0" d="M264.3,146.1h-5.6l-11,27.1h6.1l2.2-6h10.5l2.2,6h6.3L264.3,146.1z M258.1,162l1.8-4.9
				c0.3-0.8,0.6-1.6,0.8-2.3c0.3-0.7,0.5-1.4,0.6-1.9c0.1,0.5,0.3,1.1,0.6,1.9c0.3,0.7,0.5,1.5,0.8,2.3l1.8,4.9H258.1z"/>
			<g>
				<rect x="274.5" y="156.9" class="st0" width="22" height="5.2"/>
				<rect x="282.9" y="148.4" class="st0" width="5.2" height="22"/>
			</g>
		</g>
		<g>
			<path class="st0" d="M74.9,167.6c0,0.9-0.2,1.8-0.6,2.5s-0.9,1.3-1.6,1.7c-0.7,0.5-1.5,0.8-2.4,1s-1.9,0.4-2.9,0.4H56.8v-21.9H69
				c0.8,0,1.4,0.2,2.1,0.5c0.6,0.3,1.1,0.8,1.6,1.3c0.4,0.5,0.8,1.1,1,1.8s0.4,1.4,0.4,2c0,1-0.3,2-0.8,3c-0.5,0.9-1.3,1.6-2.4,2.1
				c1.3,0.4,2.2,1,3,2C74.6,164.9,74.9,166.1,74.9,167.6z M61.9,155.7v4.5h5c0.6,0,1-0.2,1.5-0.6s0.6-0.9,0.6-1.7
				c0-0.7-0.2-1.3-0.6-1.7s-0.8-0.6-1.4-0.6h-5.1V155.7z M69.8,166.6c0-0.7-0.2-1.3-0.6-1.7c-0.4-0.5-0.9-0.7-1.5-0.7h-5.8v4.8h5.6
				c0.7,0,1.2-0.2,1.6-0.6C69.6,167.9,69.8,167.3,69.8,166.6z"/>
			<path class="st0" d="M96,167.6c0,0.9-0.2,1.8-0.6,2.5s-0.9,1.3-1.6,1.7c-0.7,0.5-1.5,0.8-2.4,1s-1.9,0.4-2.9,0.4H77.9v-21.9h12.2
				c0.8,0,1.4,0.2,2.1,0.5c0.6,0.3,1.1,0.8,1.6,1.3c0.4,0.5,0.8,1.1,1,1.8s0.4,1.4,0.4,2c0,1-0.3,2-0.8,3c-0.5,0.9-1.3,1.6-2.4,2.1
				c1.3,0.4,2.2,1,3,2C95.6,164.9,96,166.1,96,167.6z M83,155.7v4.5h5c0.6,0,1-0.2,1.5-0.6s0.6-0.9,0.6-1.7c0-0.7-0.2-1.3-0.6-1.7
				s-0.8-0.6-1.4-0.6H83V155.7z M90.9,166.6c0-0.7-0.2-1.3-0.6-1.7c-0.4-0.5-0.9-0.7-1.5-0.7H83v4.8h5.6c0.7,0,1.2-0.2,1.6-0.6
				C90.6,167.9,90.9,167.3,90.9,166.6z"/>
			<path class="st0" d="M117.1,167.6c0,0.9-0.2,1.8-0.6,2.5s-0.9,1.3-1.6,1.7c-0.7,0.5-1.5,0.8-2.4,1s-1.9,0.4-2.9,0.4H99v-21.9
				h12.2c0.8,0,1.4,0.2,2.1,0.5c0.6,0.3,1.1,0.8,1.6,1.3c0.4,0.5,0.8,1.1,1,1.8s0.4,1.4,0.4,2c0,1-0.3,2-0.8,3
				c-0.5,0.9-1.3,1.6-2.4,2.1c1.3,0.4,2.2,1,3,2C116.7,164.9,117.1,166.1,117.1,167.6z M104,155.7v4.5h5c0.6,0,1-0.2,1.5-0.6
				s0.6-0.9,0.6-1.7c0-0.7-0.2-1.3-0.6-1.7s-0.8-0.6-1.4-0.6H104V155.7z M111.9,166.6c0-0.7-0.2-1.3-0.6-1.7
				c-0.4-0.5-0.9-0.7-1.5-0.7H104v4.8h5.6c0.7,0,1.2-0.2,1.6-0.6C111.7,167.9,111.9,167.3,111.9,166.6z"/>
			<path class="st0" d="M127.3,173.2v-21.9h9.9c1,0,2,0.2,2.9,0.6c0.9,0.4,1.6,1,2.3,1.7c0.6,0.7,1.1,1.5,1.5,2.4s0.5,1.8,0.5,2.7
				c0,0.7-0.1,1.3-0.2,2c-0.2,0.6-0.4,1.2-0.7,1.8s-0.7,1.1-1.1,1.5c-0.4,0.4-0.9,0.8-1.5,1.1l5,8.1H140l-4.4-7.1h-3.3v7.1
				L127.3,173.2L127.3,173.2z M132.3,161.8h4.6c0.6,0,1.1-0.3,1.5-0.8c0.4-0.6,0.6-1.3,0.6-2.2s-0.2-1.6-0.7-2.2
				c-0.5-0.5-1-0.8-1.6-0.8h-4.5L132.3,161.8L132.3,161.8z"/>
			<path class="st0" d="M152,173.5c-0.8,0-1.5-0.1-2.2-0.4s-1.3-0.6-1.8-1.1s-0.9-1-1.2-1.6s-0.4-1.3-0.4-2c0-0.8,0.2-1.5,0.5-2.2
				s0.8-1.2,1.4-1.7c0.6-0.5,1.3-0.8,2.2-1.1c0.8-0.3,1.8-0.4,2.8-0.4c0.7,0,1.3,0.1,2,0.2c0.6,0.1,1.2,0.3,1.7,0.5V163
				c0-1.9-1.1-2.8-3.2-2.8c-0.9,0-1.7,0.1-2.5,0.4s-1.6,0.7-2.5,1.3l-1.4-3.1c1.1-0.7,2.2-1.2,3.3-1.6s2.4-0.5,3.7-0.5
				c2.4,0,4.3,0.6,5.7,1.7c1.3,1.2,2,2.8,2,5.1v4.2c0,0.5,0.1,0.8,0.3,1s0.5,0.3,1,0.4v4.2c-0.5,0.1-0.9,0.2-1.3,0.2
				c-0.4,0-0.8,0-1.1,0c-0.9,0-1.6-0.2-2.1-0.6c-0.5-0.3-0.8-0.9-0.9-1.5l-0.1-0.7c-0.7,0.9-1.6,1.6-2.6,2.1
				C154.2,173.3,153.1,173.5,152,173.5z M153.5,170c0.5,0,1.1-0.1,1.6-0.3s0.9-0.4,1.2-0.7c0.5-0.4,0.7-0.8,0.7-1.2v-1.5
				c-0.4-0.2-0.9-0.3-1.4-0.4s-1-0.1-1.4-0.1c-0.9,0-1.6,0.2-2.2,0.6s-0.9,0.9-0.9,1.6c0,0.6,0.2,1.1,0.7,1.5
				C152.2,169.8,152.8,170,153.5,170z"/>
			<path class="st0" d="M175.8,172.4c-0.7,0.3-1.4,0.6-2.3,0.8c-0.9,0.2-1.7,0.4-2.7,0.4c-0.6,0-1.2-0.1-1.7-0.2
				c-0.5-0.2-1-0.4-1.4-0.7s-0.7-0.8-1-1.3s-0.4-1.2-0.4-2V161h-2.1v-4h2.1v-5.1h4.9v5.1h3.3v3.7h-3.3v6.8c0,0.5,0.1,0.9,0.4,1.2
				c0.3,0.2,0.6,0.4,1,0.4c0.3,0,0.7-0.1,1.1-0.2c0.4-0.1,0.7-0.3,1-0.4L175.8,172.4z"/>
			<path class="st0" d="M177.7,155.2v-4.5h4.9v4.5H177.7z M177.7,173.2V157h4.9v16.2H177.7z"/>
			<path class="st0" d="M201.6,173.2h-4.9v-9.1c0-1.1-0.2-1.8-0.6-2.3c-0.4-0.5-0.9-0.7-1.6-0.7c-0.4,0-0.7,0.1-1.1,0.2
				s-0.7,0.3-1,0.6s-0.6,0.6-0.9,0.9c-0.3,0.3-0.5,0.7-0.6,1.1v9.3H186V157h4.4v2.7c0.6-1,1.4-1.7,2.5-2.2s2.3-0.8,3.8-0.8
				c1,0,1.9,0.2,2.5,0.6c0.6,0.4,1.1,0.9,1.5,1.5c0.3,0.6,0.6,1.3,0.7,2c0.1,0.7,0.2,1.4,0.2,2.1L201.6,173.2L201.6,173.2z"/>
			<path class="st0" d="M211.1,173.3c-1.1,0-2-0.2-2.9-0.6c-0.9-0.4-1.6-1-2.3-1.8c-0.6-0.7-1.1-1.6-1.5-2.6s-0.5-2-0.5-3.2
				s0.2-2.3,0.6-3.3s0.9-1.9,1.5-2.7c0.7-0.8,1.4-1.3,2.4-1.8s1.9-0.6,3.1-0.6c1.2,0,2.3,0.3,3.2,0.8s1.7,1.2,2.2,2.2V157h4.3v15.1
				c0,1.2-0.2,2.3-0.7,3.3s-1.1,1.8-1.9,2.5c-0.8,0.7-1.8,1.2-3,1.6c-1.2,0.4-2.4,0.6-3.8,0.6c-1.7,0-3.2-0.3-4.5-0.8
				c-1.2-0.6-2.3-1.4-3.2-2.4l2.6-2.7c0.6,0.7,1.3,1.2,2.2,1.6c0.9,0.4,1.8,0.6,2.9,0.6c0.6,0,1.2-0.1,1.7-0.2
				c0.5-0.2,1-0.4,1.4-0.8c0.4-0.3,0.7-0.8,1-1.3c0.2-0.5,0.4-1.2,0.4-2v-1.6c-0.5,0.9-1.2,1.6-2.1,2
				C213.1,173.1,212.1,173.3,211.1,173.3z M212.8,169.4c0.8,0,1.4-0.2,2-0.6s1.1-1,1.4-1.6v-3.4c-0.3-0.9-0.8-1.5-1.5-2
				s-1.4-0.8-2.2-0.8c-0.5,0-1,0.1-1.5,0.4c-0.4,0.2-0.8,0.6-1.1,1s-0.6,0.9-0.7,1.4c-0.2,0.5-0.3,1.1-0.3,1.6
				c0,0.6,0.1,1.1,0.3,1.6s0.5,0.9,0.8,1.3c0.3,0.4,0.7,0.7,1.2,0.9C211.7,169.3,212.2,169.4,212.8,169.4z"/>
			<path class="st0" d="M224.8,162.2v-5h4v5H224.8z M224.8,173.2v-5h4v5H224.8z"/>
		</g>
	</g>
</g>
</svg>
